# Blender v2.81 (sub 16) OBJ File: 'MVS_logo_2019.blend'
# www.blender.org
mtllib MVS_logo_2020.mtl
o m3_path3233
v 3.436658 0.042876 -0.254569
v 2.827322 0.042876 -0.254569
v 2.325514 1.912932 -0.254569
v 1.683703 0.043235 -0.254569
v 1.312796 0.043235 -0.254569
v 0.704892 1.911570 -0.254569
v 0.136416 0.042948 -0.254569
v -0.185314 0.042948 -0.254569
v 0.689766 2.597396 -0.254569
v 1.049418 2.597826 -0.254569
v 1.647358 0.760524 -0.254569
v 2.309671 2.597396 -0.254569
v 2.669324 2.597396 -0.254569
v 3.436658 0.042876 -0.508572
v 2.827322 0.042876 -0.508572
v 2.325514 1.912932 -0.508572
v 1.683703 0.043235 -0.508565
v 1.312796 0.043235 -0.508572
v 0.704892 1.911570 -0.508572
v 0.136416 0.042948 -0.508572
v -0.185314 0.042948 -0.508572
v 0.689766 2.597396 -0.508572
v 1.049418 2.597826 -0.508572
v 1.647358 0.760524 -0.508572
v 2.309671 2.597396 -0.508565
v 2.669324 2.597396 -0.508565
vn -0.0000 -0.0000 1.0000
vn 0.0000 0.0000 -1.0000
vn -0.0001 0.0001 -1.0000
vn -0.0012 1.0000 0.0000
vn 0.9509 0.3095 0.0000
vn -0.9460 0.3241 0.0000
vn -0.9407 0.3392 0.0000
vn 0.0000 1.0000 0.0000
vn 0.9577 0.2877 0.0000
vn 0.9458 -0.3247 0.0000
vn -0.9658 -0.2592 0.0000
vn 0.0000 -1.0000 0.0000
vn 0.9567 -0.2911 0.0000
vn -0.9509 -0.3094 0.0000
usemtl fucsia
s off
f 9//1 11//1 10//1
f 8//1 6//1 9//1
f 6//1 11//1 9//1
f 11//1 13//1 12//1
f 11//1 3//1 13//1
f 3//1 1//1 13//1
f 11//1 4//1 3//1
f 2//1 1//1 3//1
f 8//1 7//1 6//1
f 5//1 11//1 6//1
f 5//1 4//1 11//1
f 22//2 23//2 24//2
f 21//2 22//2 19//2
f 19//2 22//2 24//2
f 24//2 25//2 26//2
f 24//3 26//3 16//3
f 16//2 26//2 14//2
f 24//2 16//2 17//2
f 15//2 16//2 14//2
f 21//2 19//2 20//2
f 18//2 19//2 24//2
f 18//2 24//2 17//2
f 9//4 10//4 23//4 22//4
f 10//5 11//5 24//5 23//5
f 8//6 9//6 22//6 21//6
f 11//7 12//7 25//7 24//7
f 12//8 13//8 26//8 25//8
f 13//9 1//9 14//9 26//9
f 3//10 4//10 17//10 16//10
f 2//11 3//11 16//11 15//11
f 1//12 2//12 15//12 14//12
f 7//12 8//12 21//12 20//12
f 6//13 7//13 20//13 19//13
f 5//14 6//14 19//14 18//14
f 4//12 5//12 18//12 17//12
o m2_path3231
v 3.759822 0.336726 -0.001976
v 3.150486 0.336726 -0.001976
v 2.648678 2.206782 -0.001976
v 2.006938 0.337085 -0.001976
v 1.636031 0.337085 -0.001976
v 1.028056 2.205205 -0.001976
v 0.459580 0.336583 -0.001976
v 0.137921 0.336583 -0.001976
v 1.013001 2.891461 -0.001976
v 1.372654 2.891891 -0.001976
v 1.970593 1.054876 -0.001976
v 2.632907 2.891317 -0.001976
v 2.992559 2.891317 -0.001976
v 3.759822 0.336726 -0.255979
v 3.150486 0.336726 -0.255971
v 2.648678 2.206782 -0.255979
v 2.006938 0.337085 -0.255979
v 1.636031 0.337085 -0.255979
v 1.028056 2.205205 -0.255971
v 0.459580 0.336583 -0.255979
v 0.137921 0.336583 -0.255979
v 1.013001 2.891461 -0.255971
v 1.372654 2.891891 -0.255979
v 1.970593 1.054876 -0.255979
v 2.632907 2.891317 -0.255979
v 2.992559 2.891317 -0.255979
vn 0.0000 -0.0000 1.0000
vn -0.0000 -0.0000 -1.0000
vn -0.0012 1.0000 0.0000
vn 0.9509 0.3095 0.0000
vn -0.9460 0.3240 0.0000
vn -0.9407 0.3393 0.0000
vn 0.0000 1.0000 0.0000
vn 0.9577 0.2877 0.0000
vn 0.9458 -0.3246 0.0000
vn -0.9658 -0.2592 0.0000
vn 0.0000 -1.0000 0.0000
vn 0.9567 -0.2911 0.0000
vn -0.9509 -0.3095 0.0000
usemtl Violeta
s off
f 35//15 37//15 36//15
f 34//15 32//15 35//15
f 32//15 37//15 35//15
f 37//15 39//15 38//15
f 37//15 29//15 39//15
f 29//15 27//15 39//15
f 37//15 30//15 29//15
f 28//15 27//15 29//15
f 34//15 33//15 32//15
f 31//15 37//15 32//15
f 31//15 30//15 37//15
f 48//16 49//16 50//16
f 47//16 48//16 45//16
f 45//16 48//16 50//16
f 50//16 51//16 52//16
f 50//16 52//16 42//16
f 42//16 52//16 40//16
f 50//16 42//16 43//16
f 41//16 42//16 40//16
f 47//16 45//16 46//16
f 44//16 45//16 50//16
f 44//16 50//16 43//16
f 35//17 36//17 49//17 48//17
f 36//18 37//18 50//18 49//18
f 34//19 35//19 48//19 47//19
f 37//20 38//20 51//20 50//20
f 38//21 39//21 52//21 51//21
f 39//22 27//22 40//22 52//22
f 29//23 30//23 43//23 42//23
f 28//24 29//24 42//24 41//24
f 27//25 28//25 41//25 40//25
f 33//25 34//25 47//25 46//25
f 32//26 33//26 46//26 45//26
f 31//27 32//27 45//27 44//27
f 30//25 31//25 44//25 43//25
o M1_path3231-2
v 4.084420 0.629847 0.256545
v 3.475083 0.629847 0.256545
v 2.973275 2.499903 0.256545
v 2.331392 0.630564 0.256545
v 1.960485 0.630564 0.256545
v 1.352582 2.498398 0.256545
v 0.784106 0.629704 0.256545
v 0.462232 0.629704 0.256545
v 1.337456 3.184582 0.256545
v 1.697108 3.185012 0.256545
v 2.295047 1.347710 0.256545
v 2.957433 3.184510 0.256545
v 3.317085 3.184510 0.256545
v 4.084420 0.629847 0.002542
v 3.475083 0.629847 0.002542
v 2.973275 2.499903 0.002542
v 2.331392 0.630564 0.002542
v 1.960485 0.630564 0.002542
v 1.352582 2.498398 0.002550
v 0.784106 0.629704 0.002542
v 0.462232 0.629704 0.002542
v 1.337456 3.184582 0.002542
v 1.697108 3.185012 0.002542
v 2.295047 1.347710 0.002542
v 2.957433 3.184510 0.002550
v 3.317085 3.184510 0.002542
vt 0.000000 0.000000
vt 1.000000 0.000000
vt 1.000000 1.000000
vt 0.000000 0.000000
vt 1.000000 0.000000
vt 1.000000 1.000000
vt 0.000000 0.000000
vt 0.000000 0.000000
vt 1.000000 0.000000
vt 1.000000 1.000000
vt 1.000000 0.000000
vt 1.000000 1.000000
vt 0.000000 0.000000
vt 1.000000 0.000000
vt 1.000000 0.000000
vt 1.000000 1.000000
vt 0.000000 0.000000
vt 1.000000 0.000000
vt 1.000000 1.000000
vt 0.000000 0.000000
vt 1.000000 1.000000
vt 0.000000 0.000000
vt 1.000000 0.000000
vt 1.000000 1.000000
vt 0.000000 0.000000
vt 1.000000 0.000000
vt 1.000000 1.000000
vt 0.000000 0.000000
vt 0.000000 0.000000
vt 1.000000 0.000000
vt 1.000000 1.000000
vt 1.000000 0.000000
vt 1.000000 1.000000
vt 0.000000 0.000000
vt 1.000000 1.000000
vt 1.000000 0.000000
vt 1.000000 1.000000
vt 0.000000 0.000000
vt 1.000000 0.000000
vt 1.000000 1.000000
vt 0.000000 0.000000
vt 1.000000 0.000000
vt 1.000000 0.000000
vt 1.000000 1.000000
vt 0.000000 1.000000
vt 0.000000 0.000000
vt 0.000000 1.000000
vt 1.000000 0.000000
vt 1.000000 1.000000
vt 0.000000 1.000000
vt 1.000000 0.000000
vt 1.000000 1.000000
vt 0.000000 1.000000
vt 0.000000 0.000000
vt 0.000000 1.000000
vt 0.000000 0.000000
vt 0.000000 1.000000
vt 0.000000 1.000000
vt 0.000000 1.000000
vt 0.000000 0.000000
vt 1.000000 0.000000
vt 1.000000 1.000000
vt 0.000000 1.000000
vt 0.000000 0.000000
vt 1.000000 0.000000
vt 1.000000 1.000000
vt 0.000000 1.000000
vt 0.000000 1.000000
vt 0.000000 1.000000
vt 0.000000 0.000000
vt 1.000000 0.000000
vt 1.000000 1.000000
vt 0.000000 1.000000
vn 0.0000 -0.0000 1.0000
vn 0.0000 0.0000 -1.0000
vn -0.0012 1.0000 0.0000
vn 0.9509 0.3095 0.0000
vn -0.9460 0.3241 0.0000
vn -0.9407 0.3392 0.0000
vn 0.0000 1.0000 0.0000
vn 0.9577 0.2877 0.0000
vn 0.9458 -0.3248 0.0000
vn -0.9658 -0.2592 0.0000
vn 0.0000 -1.0000 0.0000
vn 0.9567 -0.2910 0.0000
vn -0.9509 -0.3095 0.0000
usemtl verde
s off
f 61/1/28 63/2/28 62/3/28
f 60/4/28 58/5/28 61/6/28
f 58/7/28 63/2/28 61/6/28
f 63/8/28 65/9/28 64/10/28
f 63/8/28 55/11/28 65/12/28
f 55/13/28 53/14/28 65/12/28
f 63/8/28 56/15/28 55/16/28
f 54/17/28 53/14/28 55/16/28
f 60/4/28 59/18/28 58/19/28
f 57/20/28 63/2/28 58/19/28
f 57/20/28 56/15/28 63/21/28
f 74/22/29 75/23/29 76/24/29
f 73/25/29 74/26/29 71/27/29
f 71/28/29 74/26/29 76/24/29
f 76/29/29 77/30/29 78/31/29
f 76/29/29 78/32/29 68/33/29
f 68/34/29 78/32/29 66/35/29
f 76/29/29 68/36/29 69/37/29
f 67/38/29 68/36/29 66/35/29
f 73/25/29 71/39/29 72/40/29
f 70/41/29 71/39/29 76/24/29
f 70/41/29 76/42/29 69/37/29
f 61/1/30 62/43/30 75/44/30 74/45/30
f 62/46/31 63/2/31 76/24/31 75/47/31
f 60/4/32 61/48/32 74/49/32 73/50/32
f 63/8/33 64/51/33 77/52/33 76/53/33
f 64/54/34 65/9/34 78/31/34 77/55/34
f 65/56/35 53/14/35 66/35/35 78/57/35
f 55/13/36 56/15/36 69/37/36 68/58/36
f 54/17/37 55/11/37 68/33/37 67/59/37
f 53/60/38 54/61/38 67/62/38 66/63/38
f 59/64/38 60/65/38 73/66/38 72/67/38
f 58/7/39 59/18/39 72/40/39 71/68/39
f 57/20/40 58/5/40 71/27/40 70/69/40
f 56/70/38 57/71/38 70/72/38 69/73/38
